<svg xmlns="http://www.w3.org/2000/svg" width="1569" height="1569" viewBox="0 0 1569 1569" version="1.1"><path d="M 442.491 347.007 C 414.926 348.965, 400.807 359.358, 394.722 382.171 L 392.500 390.500 392.500 799.500 C 392.500 1192.249, 392.573 1208.810, 394.329 1216.299 C 399.991 1240.440, 413.993 1250.831, 443.800 1253.012 C 460.652 1254.245, 1079.301 1254.249, 1096.148 1253.016 C 1128.928 1250.617, 1143.189 1237.921, 1146.970 1207.769 C 1148.433 1196.103, 1148.393 645.483, 1146.928 632.211 C 1146.339 626.870, 1144.734 619.125, 1143.363 615 C 1137.810 598.305, 1141.233 602.034, 1019.608 480.183 C 957.949 418.409, 904.800 365.704, 901.500 363.062 C 889.648 353.571, 876.284 348.565, 858.623 347.002 C 845.843 345.870, 458.428 345.876, 442.491 347.007 M 453.606 400.329 C 451.464 400.976, 448.765 402.774, 447.606 404.325 L 445.500 407.146 445.241 561.573 L 444.981 716 769.991 716 L 1095 716 1095 672.191 C 1095 635.942, 1094.755 628.047, 1093.581 626.441 C 1092.200 624.552, 1089.751 624.485, 1002.331 623.925 C 904.757 623.300, 908.190 623.509, 895.354 617.417 C 883.154 611.626, 876.016 601.705, 872.392 585.500 C 870.773 578.261, 870.550 569.137, 870.051 489.529 L 869.500 401.558 867 400.294 C 863.487 398.517, 459.493 398.552, 453.606 400.329 M 578 762.682 C 570.383 763.030, 552.492 764.891, 549.250 765.674 L 547 766.217 547 854.130 L 547 942.042 566.750 941.771 L 586.500 941.500 586.764 910 L 587.029 878.500 602.264 878.361 C 625.029 878.154, 640.234 873.790, 653.699 863.599 C 667.215 853.369, 674.136 838.561, 674.309 819.500 C 674.456 803.263, 669.702 790.687, 659.529 780.408 C 644.770 765.494, 622.497 760.652, 578 762.682 M 735 762.671 C 724.272 763.257, 704.467 765.052, 702.250 765.638 L 700 766.233 700 853.500 L 700 940.767 702.750 941.452 C 704.263 941.829, 718.325 942.383, 734 942.684 C 757.367 943.133, 764.571 942.934, 774 941.579 C 811.537 936.187, 835.200 921.157, 847.999 894.578 C 861.017 867.545, 861.022 830.147, 848.011 805.137 C 838.481 786.820, 820.830 773.478, 797.554 766.998 C 783.442 763.069, 758.842 761.367, 735 762.671 M 884 853 L 884 942 904.500 942 L 925 942 925 906 L 925 870 957 870 L 989 870 989 853.500 L 989 837 957 837 L 925 837 925 816.500 L 925 796 959 796 L 993 796 993 780 L 993 764 938.500 764 L 884 764 884 853 M 589.250 793.657 L 587 794.139 587 820.439 L 587 846.738 590.750 847.358 C 609.857 850.516, 628.551 842.579, 633.094 829.381 C 634.778 824.488, 634.821 813.631, 633.174 808.861 C 631.515 804.054, 625.737 798.228, 620.070 795.648 C 616.362 793.960, 613.236 793.530, 603.500 793.372 C 596.900 793.264, 590.487 793.392, 589.250 793.657 M 745.242 793.665 L 740.984 794.116 741.242 852.808 L 741.500 911.500 753.165 911.781 C 773.903 912.281, 787.448 907.715, 798.767 896.410 C 809.191 886, 813.766 873.650, 814.666 853.500 C 816.056 822.362, 803.482 802.470, 777.955 795.421 C 772.406 793.889, 752.978 792.846, 745.242 793.665 M 445 1090.099 C 445 1200.908, 444.659 1195.111, 451.385 1198.794 C 454.302 1200.392, 474.511 1200.500, 770 1200.500 C 1081.369 1200.500, 1085.542 1200.474, 1088.734 1198.544 C 1095.346 1194.545, 1095 1200.527, 1095 1090.099 L 1095 990 770 990 L 445 990 445 1090.099" stroke="none" fill="#4a2f94" fill-rule="evenodd"/><path d="M 742 0.626 C 723.787 1.865, 697.534 4.338, 684.073 6.083 C 526.665 26.492, 379.348 93.921, 261 199.730 C 244.086 214.852, 211.541 247.510, 196.952 264 C 92.960 381.547, 26.275 528.291, 6.093 684 C 1.266 721.239, 0.549 734.245, 0.549 784.500 C 0.549 834.755, 1.266 847.761, 6.093 885 C 26.275 1040.709, 92.960 1187.453, 196.952 1305 C 211.541 1321.490, 244.086 1354.148, 261 1369.270 C 379.324 1475.057, 526.690 1542.517, 684 1562.907 C 721.239 1567.734, 734.245 1568.451, 784.500 1568.451 C 834.755 1568.451, 847.761 1567.734, 885 1562.907 C 1042.310 1542.517, 1189.676 1475.057, 1308 1369.270 C 1324.914 1354.148, 1357.459 1321.490, 1372.048 1305 C 1476.161 1187.316, 1542.946 1040.215, 1562.957 884.500 C 1565.446 865.130, 1567.988 836.778, 1567.995 828.309 C 1567.998 824.904, 1568.450 821.840, 1569 821.500 C 1569.638 821.106, 1570 807.303, 1570 783.382 C 1570 758.637, 1569.660 746.092, 1569 746.500 C 1568.374 746.887, 1567.998 744.759, 1567.995 740.809 C 1567.988 732.236, 1565.460 703.976, 1562.957 684.500 C 1542.741 527.185, 1475.179 379.460, 1369.270 261 C 1354.148 244.086, 1321.490 211.541, 1305 196.952 C 1187.316 92.838, 1040.242 26.065, 884.500 6.042 C 850.381 1.656, 836.654 0.844, 791.500 0.544 C 767.300 0.383, 745.025 0.420, 742 0.626 M 442.491 347.007 C 414.926 348.965, 400.807 359.358, 394.722 382.171 L 392.500 390.500 392.500 799.500 C 392.500 1192.249, 392.573 1208.810, 394.329 1216.299 C 399.991 1240.440, 413.993 1250.831, 443.800 1253.012 C 460.652 1254.245, 1079.301 1254.249, 1096.148 1253.016 C 1128.928 1250.617, 1143.189 1237.921, 1146.970 1207.769 C 1148.433 1196.103, 1148.393 645.483, 1146.928 632.211 C 1146.339 626.870, 1144.734 619.125, 1143.363 615 C 1137.810 598.305, 1141.233 602.034, 1019.608 480.183 C 957.949 418.409, 904.800 365.704, 901.500 363.062 C 889.648 353.571, 876.284 348.565, 858.623 347.002 C 845.843 345.870, 458.428 345.876, 442.491 347.007 M 453.606 400.329 C 451.464 400.976, 448.765 402.774, 447.606 404.325 L 445.500 407.146 445.241 561.573 L 444.981 716 769.991 716 L 1095 716 1095 672.191 C 1095 635.942, 1094.755 628.047, 1093.581 626.441 C 1092.200 624.552, 1089.751 624.485, 1002.331 623.925 C 904.757 623.300, 908.190 623.509, 895.354 617.417 C 883.154 611.626, 876.016 601.705, 872.392 585.500 C 870.773 578.261, 870.550 569.137, 870.051 489.529 L 869.500 401.558 867 400.294 C 863.487 398.517, 459.493 398.552, 453.606 400.329 M 0.454 784.500 C 0.453 805.400, 0.586 814.092, 0.748 803.816 C 0.911 793.540, 0.911 776.440, 0.749 765.816 C 0.587 755.192, 0.454 763.600, 0.454 784.500 M 578 762.682 C 570.383 763.030, 552.492 764.891, 549.250 765.674 L 547 766.217 547 854.130 L 547 942.042 566.750 941.771 L 586.500 941.500 586.764 910 L 587.029 878.500 602.264 878.361 C 625.029 878.154, 640.234 873.790, 653.699 863.599 C 667.215 853.369, 674.136 838.561, 674.309 819.500 C 674.456 803.263, 669.702 790.687, 659.529 780.408 C 644.770 765.494, 622.497 760.652, 578 762.682 M 735 762.671 C 724.272 763.257, 704.467 765.052, 702.250 765.638 L 700 766.233 700 853.500 L 700 940.767 702.750 941.452 C 704.263 941.829, 718.325 942.383, 734 942.684 C 757.367 943.133, 764.571 942.934, 774 941.579 C 811.537 936.187, 835.200 921.157, 847.999 894.578 C 861.017 867.545, 861.022 830.147, 848.011 805.137 C 838.481 786.820, 820.830 773.478, 797.554 766.998 C 783.442 763.069, 758.842 761.367, 735 762.671 M 884 853 L 884 942 904.500 942 L 925 942 925 906 L 925 870 957 870 L 989 870 989 853.500 L 989 837 957 837 L 925 837 925 816.500 L 925 796 959 796 L 993 796 993 780 L 993 764 938.500 764 L 884 764 884 853 M 589.250 793.657 L 587 794.139 587 820.439 L 587 846.738 590.750 847.358 C 609.857 850.516, 628.551 842.579, 633.094 829.381 C 634.778 824.488, 634.821 813.631, 633.174 808.861 C 631.515 804.054, 625.737 798.228, 620.070 795.648 C 616.362 793.960, 613.236 793.530, 603.500 793.372 C 596.900 793.264, 590.487 793.392, 589.250 793.657 M 745.242 793.665 L 740.984 794.116 741.242 852.808 L 741.500 911.500 753.165 911.781 C 773.903 912.281, 787.448 907.715, 798.767 896.410 C 809.191 886, 813.766 873.650, 814.666 853.500 C 816.056 822.362, 803.482 802.470, 777.955 795.421 C 772.406 793.889, 752.978 792.846, 745.242 793.665 M 445 1090.099 C 445 1200.908, 444.659 1195.111, 451.385 1198.794 C 454.302 1200.392, 474.511 1200.500, 770 1200.500 C 1081.369 1200.500, 1085.542 1200.474, 1088.734 1198.544 C 1095.346 1194.545, 1095 1200.527, 1095 1090.099 L 1095 990 770 990 L 445 990 445 1090.099" stroke="none" fill="#9f7df6" fill-rule="evenodd"/></svg>